
<svg version="1.0" xmlns="http://www.w3.org/2000/svg"
 width="426.000000pt" height="171.000000pt" viewBox="0 0 426.000000 171.000000"
 preserveAspectRatio="xMidYMid meet">

<g transform="translate(0.000000,171.000000) scale(0.100000,-0.100000)"
fill="#000000" stroke="none">
<path d="M882 1148 c-7 -7 -12 -28 -12 -48 0 -100 -97 -598 -146 -750 -13 -41
-20 -78 -15 -83 12 -12 57 12 69 38 19 40 71 246 106 419 26 124 44 187 68
234 35 68 121 172 143 172 19 0 35 -54 35 -120 0 -109 -79 -330 -136 -383 -39
-36 -79 -36 -92 1 -9 23 -11 24 -11 6 -1 -12 8 -33 20 -48 50 -64 142 -11 204
119 88 182 98 372 24 428 -24 17 -29 18 -56 3 -37 -18 -82 -70 -120 -133 -32
-56 -40 -43 -24 42 11 61 5 87 -28 104 -12 7 -22 6 -29 -1z"/>
<path d="M2428 1121 c-68 -54 -151 -299 -183 -538 -4 -33 -14 -58 -28 -71 -23
-21 -88 -62 -98 -62 -14 0 -92 146 -96 179 -5 40 22 92 56 111 17 9 23 6 37
-15 9 -14 14 -34 11 -45 -3 -11 -1 -20 4 -20 20 0 8 61 -16 85 -29 30 -49 31
-94 7 -63 -34 -90 -126 -56 -192 14 -28 13 -32 -16 -82 -36 -62 -77 -108 -96
-108 -22 0 -16 110 12 197 30 93 31 119 7 132 -29 16 -43 -2 -68 -89 -49 -168
-215 -315 -268 -238 -36 50 -14 130 39 148 77 25 135 103 115 154 -22 60 -95
53 -152 -14 -18 -21 -55 -82 -83 -137 -52 -103 -134 -201 -155 -188 -15 9 -7
94 16 161 20 59 9 67 -56 46 -26 -8 -55 -12 -64 -9 -19 7 -21 45 -5 80 23 51
-36 94 -62 46 -48 -90 -17 -149 78 -149 29 0 34 -3 28 -17 -14 -38 -24 -115
-18 -143 17 -85 102 -54 192 70 l28 39 12 -41 c17 -57 51 -88 97 -88 54 0 95
24 164 96 34 35 63 64 65 64 2 0 1 -15 -2 -34 -7 -44 13 -103 38 -111 32 -11
81 26 127 95 23 36 46 66 50 68 8 2 52 -69 52 -84 0 -5 -16 -19 -36 -32 -40
-26 -68 -83 -60 -118 8 -31 41 -47 80 -40 59 11 96 72 96 161 1 37 4 42 53 72
l52 32 6 -84 c6 -91 24 -130 65 -145 14 -6 34 -6 47 -1 31 12 107 97 137 155
14 25 28 46 31 46 4 0 7 -21 7 -46 1 -50 23 -84 53 -84 28 0 85 55 119 116 18
30 36 54 41 54 9 0 49 -72 49 -89 0 -5 -15 -19 -34 -30 -33 -21 -66 -73 -66
-105 0 -26 38 -56 70 -56 20 0 42 11 67 34 35 32 37 38 41 103 l4 68 51 30
c29 16 54 31 57 33 3 1 4 -28 2 -65 -5 -88 13 -143 53 -162 46 -22 89 7 155
107 l55 82 8 -39 c18 -88 105 -117 188 -62 45 31 164 159 155 169 -3 3 -16 -8
-28 -24 -134 -172 -238 -206 -238 -77 0 59 10 81 37 88 42 10 102 53 118 84
39 77 -13 143 -84 106 -49 -25 -79 -64 -133 -170 -57 -114 -129 -219 -160
-236 -18 -10 -25 -8 -41 12 -17 22 -19 36 -15 145 5 119 5 122 39 166 19 25
50 74 69 110 l34 65 86 6 c93 7 130 15 130 28 0 5 -12 4 -26 -1 -37 -14 -174
-25 -174 -14 0 5 14 49 30 97 46 135 37 200 -26 200 -54 0 -104 -77 -168 -257
-4 -13 -12 -17 -29 -12 -12 4 -50 9 -84 13 -49 4 -68 2 -88 -11 -14 -9 -25
-21 -25 -27 0 -6 12 -1 26 10 15 12 41 21 58 21 48 0 131 -26 128 -39 -1 -6
-12 -71 -24 -144 -17 -105 -26 -137 -44 -157 -23 -25 -91 -67 -97 -59 -24 30
-97 168 -97 182 0 32 28 85 55 103 32 21 45 11 56 -43 l7 -38 -1 39 c-2 29 -9
44 -29 59 -34 25 -70 17 -113 -26 -41 -41 -52 -96 -31 -157 15 -42 14 -46 -11
-91 -30 -56 -87 -114 -102 -105 -20 13 -11 105 18 198 21 63 27 97 21 108 -11
21 -33 31 -47 22 -11 -8 -36 -75 -48 -132 -14 -66 -117 -238 -160 -266 -55
-36 -81 29 -70 176 6 92 8 98 55 170 64 100 113 198 144 292 28 81 34 166 14
186 -18 18 -62 14 -90 -7z m92 -54 c0 -46 -34 -160 -74 -243 -44 -93 -108
-192 -113 -176 -7 19 37 209 68 294 26 73 60 134 84 150 22 16 35 7 35 -25z
m730 -25 c0 -35 -22 -115 -48 -174 -19 -44 -24 -48 -55 -48 -19 0 -36 2 -39 6
-17 16 64 207 100 234 29 24 42 18 42 -18z m-80 -243 c0 -11 -68 -131 -94
-164 -9 -12 -15 -15 -16 -7 0 17 31 165 36 174 8 12 74 9 74 -3z m-1490 -153
c0 -25 -8 -43 -29 -64 -31 -30 -87 -59 -97 -49 -9 9 48 107 74 128 37 29 52
24 52 -15z m1793 -5 c-2 -48 -69 -111 -118 -111 -13 0 -11 9 11 50 53 98 111
130 107 61z m-1423 -286 c0 -60 -23 -105 -54 -105 -58 0 -58 69 0 120 19 16
39 30 44 30 6 0 10 -20 10 -45z m725 -81 c-21 -32 -62 -32 -76 0 -14 31 10 80
54 106 l32 20 3 -51 c2 -34 -2 -59 -13 -75z"/>
<path d="M1884 815 c-19 -48 -18 -64 9 -75 17 -7 27 -4 45 16 26 29 29 79 6
88 -31 12 -45 5 -60 -29z"/>
<path d="M2625 811 c-14 -33 -15 -43 -5 -56 21 -25 56 -19 70 14 18 44 10 75
-21 79 -21 3 -28 -4 -44 -37z"/>
</g>
</svg>
